<svg xmlns="http://www.w3.org/2000/svg" width="292.264" height="62.385" viewBox="0 0 292.264 62.385">
  <g id="logo250-95GB" transform="translate(-40.532 -43.943)">
    <g id="Group_35509" data-name="Group 35509" transform="translate(119.673 43.943)">
      <path id="Path_21010" data-name="Path 21010" d="M161.627,55.474V78.138c0,10.488-5.935,15.451-16.269,15.451-5.32,0-10.385-1.227-13.762-3.633l3.53-6.8a16.053,16.053,0,0,0,9.362,2.967c5.219,0,7.418-2.354,7.418-6.7V78.5c-1.893,2.2-4.707,3.274-8.237,3.274-7.367,0-13.608-5.218-13.608-13.4,0-8.135,6.241-13.353,13.608-13.353,3.837,0,6.8,1.228,8.7,3.837V55.474h9.26Zm-9.618,12.893c0-3.377-2.558-5.628-6.038-5.628s-6.087,2.251-6.087,5.628,2.609,5.679,6.087,5.679S152.009,71.744,152.009,68.367Z" transform="translate(-130.061 -45.243)" fill="#35393c"/>
      <path id="Path_21011" data-name="Path 21011" d="M200.861,71.795H180.7c.819,2.813,3.223,4.45,6.8,4.45a8.884,8.884,0,0,0,6.4-2.4l5.116,5.32c-2.66,2.967-6.548,4.5-11.818,4.5-9.874,0-16.269-6.089-16.269-14.377,0-8.339,6.5-14.274,15.245-14.274,8.186,0,14.837,5.218,14.837,14.376C201.014,70.106,200.91,71.027,200.861,71.795Zm-20.311-5.116h11.357a5.768,5.768,0,0,0-11.357,0Z" transform="translate(-134.859 -45.243)" fill="#35393c"/>
      <path id="Path_21012" data-name="Path 21012" d="M228.868,81.315a13.062,13.062,0,0,1-6.753,1.587c-7.112,0-11.256-3.48-11.256-10.591V63h-4.042V55.736h4.042V48.522h9.72v7.214h6.344V63H220.58v9.208c0,2.047,1.178,3.172,2.916,3.172a5.316,5.316,0,0,0,2.967-.87Z" transform="translate(-139.072 -44.481)" fill="#35393c"/>
      <path id="Path_21013" data-name="Path 21013" d="M267.089,67.988c0,8.85-6.089,14.377-13.609,14.377-3.633,0-6.343-1.023-8.186-3.224V81.9h-9.26V43.943h9.721V56.58a10.3,10.3,0,0,1,7.725-2.865C261,53.714,267.089,59.189,267.089,67.988Zm-9.822,0c0-4.195-2.559-6.548-5.833-6.548s-5.832,2.354-5.832,6.548c0,4.246,2.558,6.651,5.832,6.651S257.267,72.234,257.267,67.988Z" transform="translate(-142.502 -43.943)" fill="#35393c"/>
      <path id="Path_21014" data-name="Path 21014" d="M274.356,69.288c0-8.339,6.6-14.274,15.655-14.274,9.158,0,15.655,5.935,15.655,14.274,0,8.39-6.5,14.377-15.655,14.377C280.955,83.664,274.356,77.678,274.356,69.288Zm21.486,0c0-4.195-2.506-6.548-5.832-6.548-3.274,0-5.832,2.354-5.832,6.548,0,4.246,2.558,6.651,5.832,6.651C293.336,75.938,295.842,73.534,295.842,69.288Z" transform="translate(-147.001 -45.243)" fill="#35393c"/>
      <path id="Path_21015" data-name="Path 21015" d="M314.936,43.943h9.721V81.9h-9.721Z" transform="translate(-151.765 -43.943)" fill="#35393c"/>
      <path id="Path_21016" data-name="Path 21016" d="M362.337,43.943V81.9h-9.259V79.14c-1.843,2.2-4.553,3.224-8.134,3.224-7.572,0-13.661-5.527-13.661-14.377,0-8.8,6.089-14.274,13.661-14.274,3.223,0,5.832.921,7.673,2.865V43.943h9.72Zm-9.566,24.045c0-4.195-2.508-6.548-5.782-6.548-3.324,0-5.832,2.354-5.832,6.548,0,4.246,2.508,6.651,5.832,6.651C350.263,74.639,352.771,72.234,352.771,67.988Z" transform="translate(-153.684 -43.943)" fill="#35393c"/>
    </g>
    <g id="Group_35510" data-name="Group 35510" transform="translate(122.863 96.94)">
      <path id="Path_21017" data-name="Path 21017" d="M136.727,104.614h-3.052v-.557H140.4v.557h-3.052v7.92h-.617Z" transform="translate(-133.676 -103.998)" fill="#35393c"/>
      <path id="Path_21018" data-name="Path 21018" d="M141.768,109.669h3.112v.545h-3.112Z" transform="translate(-134.626 -104.656)" fill="#35393c"/>
      <path id="Path_21019" data-name="Path 21019" d="M146.582,111.436l.279-.46a4.031,4.031,0,0,0,2.8,1.066c1.7,0,2.446-.739,2.446-1.66,0-2.542-5.292-1.016-5.292-4.141,0-1.2.92-2.252,3-2.252a4.544,4.544,0,0,1,2.555.762l-.23.5a4.194,4.194,0,0,0-2.325-.715c-1.647,0-2.386.764-2.386,1.7,0,2.543,5.292,1.042,5.292,4.118,0,1.2-.957,2.239-3.052,2.239A4.341,4.341,0,0,1,146.582,111.436Z" transform="translate(-135.191 -103.99)" fill="#35393c"/>
      <path id="Path_21020" data-name="Path 21020" d="M162.813,104.058v8.477H162.2V108.5h-5.667v4.032h-.618v-8.477h.618v3.9H162.2v-3.9Z" transform="translate(-136.286 -103.998)" fill="#35393c"/>
      <path id="Path_21021" data-name="Path 21021" d="M167.076,104.058h.618v8.477h-.618Z" transform="translate(-137.597 -103.998)" fill="#35393c"/>
      <path id="Path_21022" data-name="Path 21022" d="M177.007,112.534l-2.022-2.833a6.083,6.083,0,0,1-.824.06H171.74v2.773h-.618v-8.477h3.039c2.132,0,3.416,1.066,3.416,2.857a2.6,2.6,0,0,1-1.986,2.652l2.119,2.967h-.7Zm-2.846-3.318c1.817,0,2.785-.848,2.785-2.3s-.968-2.3-2.785-2.3H171.74v4.6Z" transform="translate(-138.072 -103.998)" fill="#35393c"/>
      <path id="Path_21023" data-name="Path 21023" d="M182.294,104.614h-3.052v-.557h6.721v.557h-3.053v7.92h-.617v-7.92Z" transform="translate(-139.025 -103.998)" fill="#35393c"/>
      <path id="Path_21024" data-name="Path 21024" d="M198.562,106.915c0,1.78-1.284,2.846-3.416,2.846h-2.421v2.773h-.618v-8.477h3.039C197.278,104.058,198.562,105.124,198.562,106.915Zm-.63,0c0-1.464-.968-2.3-2.785-2.3h-2.421v4.59h2.421C196.964,109.2,197.932,108.368,197.932,106.915Z" transform="translate(-140.535 -103.998)" fill="#35393c"/>
      <path id="Path_21025" data-name="Path 21025" d="M207.662,112.534,205.64,109.7a6.082,6.082,0,0,1-.824.06h-2.421v2.773h-.618v-8.477h3.039c2.132,0,3.416,1.066,3.416,2.857a2.6,2.6,0,0,1-1.986,2.652l2.119,2.967h-.7Zm-2.846-3.318c1.817,0,2.785-.848,2.785-2.3s-.968-2.3-2.785-2.3h-2.422v4.6Z" transform="translate(-141.671 -103.998)" fill="#35393c"/>
      <path id="Path_21026" data-name="Path 21026" d="M211.654,104.058h.617v8.477h-.617v-8.477Z" transform="translate(-142.83 -103.998)" fill="#35393c"/>
      <path id="Path_21027" data-name="Path 21027" d="M222.6,104.058v8.477h-.508l-5.776-7.363v7.363H215.7v-8.477h.521l5.763,7.362v-7.362Z" transform="translate(-143.305 -103.998)" fill="#35393c"/>
      <path id="Path_21028" data-name="Path 21028" d="M228.3,104.614h-3.052v-.557h6.721v.557h-3.052v7.92H228.3Z" transform="translate(-144.426 -103.998)" fill="#35393c"/>
      <path id="Path_21029" data-name="Path 21029" d="M234.586,104.058h.618v8.477h-.618Z" transform="translate(-145.522 -103.998)" fill="#35393c"/>
      <path id="Path_21030" data-name="Path 21030" d="M245.535,104.058v8.477h-.508l-5.776-7.363v7.363h-.618v-8.477h.521l5.763,7.362v-7.362Z" transform="translate(-145.997 -103.998)" fill="#35393c"/>
      <path id="Path_21031" data-name="Path 21031" d="M255.744,108.324h.594V111.5a4.366,4.366,0,0,1-3.027,1.089,4.3,4.3,0,1,1,.011-8.6,4.145,4.145,0,0,1,3.052,1.162l-.387.411a3.575,3.575,0,0,0-2.652-1,3.733,3.733,0,1,0,2.409,6.685Z" transform="translate(-147.2 -103.99)" fill="#35393c"/>
      <path id="Path_21032" data-name="Path 21032" d="M269.77,112.649l-1.223-1.285a3.549,3.549,0,0,1-2.82,1.223c-1.611,0-2.762-.859-2.762-2.118,0-.982.581-1.72,2.192-2.665l-.013-.024c-.859-.9-1.089-1.393-1.089-2.047,0-1.04.775-1.731,2.01-1.731,1.139,0,1.865.605,1.865,1.61,0,.836-.5,1.417-1.938,2.265l2.508,2.652a5.783,5.783,0,0,0,.605-1.72l.5.158a5.875,5.875,0,0,1-.727,1.95l1.259,1.332Zm-1.586-1.671-2.676-2.822c-1.5.885-1.95,1.453-1.95,2.265,0,.992.9,1.659,2.192,1.659A2.977,2.977,0,0,0,268.184,110.978Zm-2.543-3.464c1.333-.775,1.756-1.222,1.756-1.888,0-.691-.471-1.15-1.332-1.15a1.263,1.263,0,0,0-1.44,1.259C264.625,106.268,264.83,106.655,265.641,107.514Z" transform="translate(-148.854 -103.991)" fill="#35393c"/>
      <path id="Path_21033" data-name="Path 21033" d="M282.285,111.978v.557h-5.849v-8.477H282.1v.557h-5.05v3.343h4.516v.545h-4.516v3.475h5.231Z" transform="translate(-150.435 -103.998)" fill="#35393c"/>
      <path id="Path_21034" data-name="Path 21034" d="M293.628,112.534l-.013-7.254-3.548,6.127h-.3l-3.548-6.1v7.229h-.605v-8.477h.521l3.791,6.551,3.789-6.551h.508l.013,8.477h-.605Z" transform="translate(-151.513 -103.998)" fill="#35393c"/>
      <path id="Path_21035" data-name="Path 21035" d="M305.625,110.294c0,1.43-1.041,2.241-3.124,2.241h-3.778v-8.477h3.537c1.816,0,2.917.762,2.917,2.168a1.933,1.933,0,0,1-1.416,1.937A2.038,2.038,0,0,1,305.625,110.294Zm-6.285-5.7v3.378h2.895c1.464,0,2.312-.568,2.312-1.694s-.848-1.684-2.312-1.684Zm5.666,5.655c0-1.21-.883-1.743-2.506-1.743h-3.16V112h3.16C304.124,112,305.007,111.468,305.007,110.245Z" transform="translate(-153.052 -103.998)" fill="#35393c"/>
      <path id="Path_21036" data-name="Path 21036" d="M314.921,112.534,312.9,109.7a6.108,6.108,0,0,1-.824.06h-2.422v2.773h-.618v-8.477h3.04c2.131,0,3.414,1.066,3.414,2.857a2.6,2.6,0,0,1-1.985,2.652l2.12,2.967h-.7Zm-2.844-3.318c1.816,0,2.785-.848,2.785-2.3s-.969-2.3-2.785-2.3h-2.422v4.6Z" transform="translate(-154.263 -103.998)" fill="#35393c"/>
      <path id="Path_21037" data-name="Path 21037" d="M318,108.287a4.409,4.409,0,1,1,4.408,4.3A4.243,4.243,0,0,1,318,108.287Zm8.186,0a3.785,3.785,0,1,0-3.778,3.731A3.661,3.661,0,0,0,326.182,108.287Z" transform="translate(-155.314 -103.99)" fill="#35393c"/>
      <path id="Path_21038" data-name="Path 21038" d="M330.409,104.058h.618v8.477h-.618Z" transform="translate(-156.772 -103.998)" fill="#35393c"/>
      <path id="Path_21039" data-name="Path 21039" d="M334.456,104.058h3.354a4.246,4.246,0,1,1,0,8.477h-3.354Zm3.3,7.92a3.69,3.69,0,1,0,0-7.363h-2.688v7.363h2.688Z" transform="translate(-157.247 -103.998)" fill="#35393c"/>
      <path id="Path_21040" data-name="Path 21040" d="M351.634,111.978v.557h-5.849v-8.477h5.668v.557H346.4v3.343h4.516v.545H346.4v3.475h5.231Z" transform="translate(-158.577 -103.998)" fill="#35393c"/>
      <path id="Path_21041" data-name="Path 21041" d="M360.846,112.534l-2.021-2.833a6.109,6.109,0,0,1-.824.06h-2.422v2.773h-.618v-8.477H358c2.131,0,3.414,1.066,3.414,2.857a2.6,2.6,0,0,1-1.985,2.652l2.12,2.967h-.7ZM358,109.216c1.816,0,2.785-.848,2.785-2.3s-.969-2.3-2.785-2.3H355.58v4.6Z" transform="translate(-159.654 -103.998)" fill="#35393c"/>
      <path id="Path_21042" data-name="Path 21042" d="M367.127,109.616v2.919h-.618v-2.919l-3.416-5.558h.679l3.063,4.99,3.064-4.99h.641Z" transform="translate(-160.609 -103.998)" fill="#35393c"/>
    </g>
    <g id="Group_35514" data-name="Group 35514" transform="translate(41.572 45.352)">
      <g id="Group_35513" data-name="Group 35513">
        <g id="Group_35512" data-name="Group 35512" transform="translate(21.544 14.23)">
          <g id="Group_35511" data-name="Group 35511">
            <path id="Path_21043" data-name="Path 21043" d="M95.567,85.261V95.9H84.931" transform="translate(-68.206 -64.432)" fill="none" stroke="#269d49" stroke-miterlimit="10" stroke-width="1.808"/>
            <path id="Path_21044" data-name="Path 21044" d="M76.617,95.9H65.981V85.261" transform="translate(-65.981 -64.432)" fill="none" stroke="#269d49" stroke-miterlimit="10" stroke-width="1.808"/>
            <path id="Path_21045" data-name="Path 21045" d="M65.981,72.3V61.662H76.617" transform="translate(-65.981 -61.662)" fill="none" stroke="#269d49" stroke-miterlimit="10" stroke-width="1.808"/>
            <path id="Path_21046" data-name="Path 21046" d="M84.931,61.662H95.567V72.3" transform="translate(-68.206 -61.662)" fill="none" stroke="#269d49" stroke-miterlimit="10" stroke-width="1.808"/>
          </g>
        </g>
        <path id="Path_21047" data-name="Path 21047" d="M41.572,61.318s2.215,7.612,6.782,10.934l8.3-3.737v35.571s20.346,2.907,40,.277l.277-35.847,8.3,4.014s5.675-4.291,6.782-11.349L96.8,49.691,86,45.539s-7.751,4.983-17.993,0l-10.8,3.737Z" transform="translate(-41.572 -45.539)" fill="none" stroke="#269d49" stroke-miterlimit="10" stroke-width="1.808"/>
        <path id="Path_21048" data-name="Path 21048" d="M71.245,46.012c-.035,4.742,12.762,12.1,18.579-.029" transform="translate(-45.055 -45.591)" fill="none" stroke="#269d49" stroke-miterlimit="10" stroke-width="1.808"/>
        <path id="Path_21049" data-name="Path 21049" d="M68.124,46.716s3.8,9.01,12.471,8.468c0,0,8.484-.149,10.864-8.468" transform="translate(-44.689 -45.677)" fill="none" stroke="#269d49" stroke-miterlimit="10" stroke-width="1.808"/>
        <path id="Path_21050" data-name="Path 21050" d="M117.665,61.452s0,5.711-6.94,11.757" transform="translate(-49.69 -47.407)" fill="none" stroke="#269d49" stroke-miterlimit="10" stroke-width="1.808"/>
        <path id="Path_21051" data-name="Path 21051" d="M58.729,108.415s24.683,3.192,39.963.092" transform="translate(-43.586 -52.921)" fill="none" stroke="#269d49" stroke-miterlimit="10" stroke-width="1.808"/>
      </g>
      <path id="Path_21052" data-name="Path 21052" d="M43.833,61.557a33.166,33.166,0,0,0,6.8,11.572" transform="translate(-41.837 -47.42)" fill="none" stroke="#269d49" stroke-miterlimit="10" stroke-width="1.808"/>
    </g>
  </g>
</svg>
