<svg xmlns="http://www.w3.org/2000/svg" width="39.413" height="44.04" viewBox="0 0 39.413 44.04">
  <g id="add-user" transform="translate(0.5 0.528)">
    <path id="Path_20975" data-name="Path 20975" d="M22.15,39.424H43.915a8.713,8.713,0,1,0,5.56-13.689A14.907,14.907,0,0,0,41.345,19.6a10.38,10.38,0,1,0-14-4.406A10.5,10.5,0,0,0,31.748,19.6a14.9,14.9,0,0,0-10.49,14.213V38.48a.931.931,0,0,0,.892.944ZM49.265,27.676a6.869,6.869,0,1,1-5.14,6.608,6.746,6.746,0,0,1,5.14-6.608Zm-21.241-17.2a8.523,8.523,0,1,1,8.5,8.5A8.506,8.506,0,0,1,28.024,10.473Zm-4.93,23.339A13.094,13.094,0,0,1,36.153,20.753h.892A13.1,13.1,0,0,1,47.692,26.26a8.738,8.738,0,0,0-5.35,8.024,9.441,9.441,0,0,0,.629,3.3H23.094Z" transform="translate(-21.258 0)" stroke="#fff" stroke-width="1"/>
    <path id="Path_20976" data-name="Path 20976" d="M255.434,281.149h2.622v2.622a.944.944,0,1,0,1.888,0v-2.622h2.622a.944.944,0,1,0,0-1.888h-2.622v-2.57a.944.944,0,1,0-1.888,0v2.57h-2.622a.944.944,0,1,0,0,1.888Z" transform="translate(-229.263 -245.921)" stroke="#fff" stroke-width="1"/>
  </g>
</svg>
