<svg xmlns="http://www.w3.org/2000/svg" width="77" height="77" viewBox="0 0 77 77">
  <g id="Group_35480" data-name="Group 35480" transform="translate(-1637 -4241)">
    <circle id="Ellipse_304" data-name="Ellipse 304" cx="38.5" cy="38.5" r="38.5" transform="translate(1637 4241)" fill="#229f49" opacity="0.15"/>
    <g id="best-price" transform="translate(1585.232 4256.776)">
      <path id="Path_20995" data-name="Path 20995" d="M104.91,16.82l.993-4.191a1.86,1.86,0,0,0-.6-1.846l-3.266-2.807L100.375,4a1.861,1.861,0,0,0-1.568-1.14l-4.293-.356L90.831.271a1.86,1.86,0,0,0-1.937,0L85.212,2.506l-4.293.356A1.861,1.861,0,0,0,79.351,4L77.688,7.976l-3.266,2.807a1.86,1.86,0,0,0-.6,1.846l.993,4.191-.993,4.191a1.86,1.86,0,0,0,.6,1.846l3.266,2.807,1.663,3.974a1.861,1.861,0,0,0,1.568,1.14l1.722.143V43.43a1.778,1.778,0,0,0,2.519,1.619l4.7-2.148,4.7,2.148a1.78,1.78,0,0,0,2.519-1.619V41.061a.885.885,0,0,0-1.769,0v2.373a.016.016,0,0,1-.015.005l-5.07-2.316a.885.885,0,0,0-.735,0l-5.074,2.318a.015.015,0,0,1-.011-.011V31.068l.8.066,3.683,2.235a1.861,1.861,0,0,0,1.937,0l3.683-2.235.8-.066v2.062a.885.885,0,0,0,1.769,0V30.921l1.722-.143a1.861,1.861,0,0,0,1.568-1.14l1.663-3.974,3.266-2.807a1.86,1.86,0,0,0,.6-1.846Zm-1.77.2,1.042,4.4a.1.1,0,0,1-.031.1l-3.425,2.943a.884.884,0,0,0-.239.329l-1.744,4.167a.1.1,0,0,1-.082.059l-4.5.373a.884.884,0,0,0-.386.125l-3.861,2.343a.1.1,0,0,1-.1,0l-3.861-2.343a.884.884,0,0,0-.386-.125l-4.5-.373a.1.1,0,0,1-.082-.059L79.24,24.788A.885.885,0,0,0,79,24.459l-3.425-2.943a.1.1,0,0,1-.031-.1l1.042-4.4a.885.885,0,0,0,0-.408l-1.042-4.4a.1.1,0,0,1,.031-.1L79,9.181a.884.884,0,0,0,.239-.329l1.744-4.167a.1.1,0,0,1,.082-.059l4.5-.373a.883.883,0,0,0,.386-.125l3.861-2.343a.1.1,0,0,1,.05-.014.1.1,0,0,1,.05.014l3.861,2.343a.885.885,0,0,0,.386.125l4.5.373a.1.1,0,0,1,.082.059l1.744,4.167a.886.886,0,0,0,.239.329l3.425,2.944a.1.1,0,0,1,.031.1l-1.042,4.4A.884.884,0,0,0,103.14,17.024Z" transform="translate(0)" fill="#229f49"/>
      <path id="Path_20996" data-name="Path 20996" d="M138.407,61.5a11.39,11.39,0,1,0,11.39,11.39A11.4,11.4,0,0,0,138.407,61.5Zm0,21.01a9.62,9.62,0,1,1,9.62-9.62A9.631,9.631,0,0,1,138.407,82.514Z" transform="translate(-48.544 -56.073)" fill="#229f49"/>
      <path id="Path_20997" data-name="Path 20997" d="M219.957,113.359a10.227,10.227,0,0,1-2.614-1.219,1,1,0,0,1-.255-.974,1.332,1.332,0,0,1,.886-1.051,3.584,3.584,0,0,1,2.751.762.885.885,0,0,0,1.11-1.378,6.3,6.3,0,0,0-2.4-1.132v-.614a.885.885,0,1,0-1.769,0v.613q-.1.024-.2.055a3.084,3.084,0,0,0-2.115,2.418,2.735,2.735,0,0,0,.9,2.694,10.878,10.878,0,0,0,3.117,1.495,1.51,1.51,0,0,1,1.075,1.749,1.911,1.911,0,0,1-1.9,1.612,3.069,3.069,0,0,1-2.182-.575.885.885,0,0,0-.969,1.481,4.452,4.452,0,0,0,2.272.839v.617a.885.885,0,1,0,1.769,0v-.7a3.73,3.73,0,0,0,2.751-2.981A3.242,3.242,0,0,0,219.957,113.359Z" transform="translate(-128.753 -97.432)" fill="#229f49"/>
      <circle id="Ellipse_299" data-name="Ellipse 299" cx="0.883" cy="0.883" r="0.883" transform="matrix(0.987, -0.16, 0.16, 0.987, 95.178, 36.367)" fill="#229f49"/>
    </g>
  </g>
</svg>
