<svg xmlns="http://www.w3.org/2000/svg" width="43.5" height="43.5" viewBox="0 0 43.5 43.5">
  <g id="customer-support" transform="translate(0.25 0.25)">
    <path id="Path_20972" data-name="Path 20972" d="M77.157,32.836a2.871,2.871,0,0,0-.749-3.524,23.573,23.573,0,0,0-29.818,0,2.871,2.871,0,0,0-.749,3.524A21.354,21.354,0,0,0,40,47.569V58a2.79,2.79,0,0,0,2.787,2.787h2.15a.8.8,0,0,0,.8-.8V47.569a.8.8,0,0,0-.8-.8h-2.15a2.77,2.77,0,0,0-1.187.266A19.76,19.76,0,0,1,46.931,34a2.866,2.866,0,0,0,3.288-.251,17.837,17.837,0,0,1,22.56,0A2.865,2.865,0,0,0,76.068,34,19.76,19.76,0,0,1,81.4,47.039a2.77,2.77,0,0,0-1.187-.266h-2.15a.8.8,0,0,0-.8.8V59.992a.8.8,0,0,0,.8.8h2.15a2.771,2.771,0,0,0,1.149-.249,3.349,3.349,0,0,1-3.3,2.8H70.577v-.08a1.993,1.993,0,0,0-1.991-1.991H65.717a1.993,1.993,0,0,0-1.991,1.991v1.752A1.993,1.993,0,0,0,65.717,67h2.869a1.993,1.993,0,0,0,1.991-1.991v-.08h7.485A4.943,4.943,0,0,0,83,59.992V47.569a21.354,21.354,0,0,0-5.842-14.733ZM68.984,65.008a.4.4,0,0,1-.4.4H65.717a.4.4,0,0,1-.4-.4V63.256a.4.4,0,0,1,.4-.4h2.869a.4.4,0,0,1,.4.4Zm-26.2-16.643H44.14V59.2H42.786A1.2,1.2,0,0,1,41.592,58V49.56a1.2,1.2,0,0,1,1.194-1.194Zm31-15.846a19.43,19.43,0,0,0-24.576,0,1.276,1.276,0,0,1-1.715-.079,1.257,1.257,0,0,1-.371-.962,1.274,1.274,0,0,1,.472-.933,21.98,21.98,0,0,1,27.8,0,1.274,1.274,0,0,1,.473.933,1.255,1.255,0,0,1-.371.962A1.275,1.275,0,0,1,73.787,32.519ZM80.212,59.2H78.858V48.366h1.354a1.2,1.2,0,0,1,1.194,1.194V58A1.2,1.2,0,0,1,80.212,59.2Z" transform="translate(-39.999 -23.999)" stroke="#fff" stroke-width="0.5"/>
    <path id="Path_20973" data-name="Path 20973" d="M146.253,187.755a3.388,3.388,0,0,0,3.384-3.384V172.984a3.388,3.388,0,0,0-3.384-3.384H126.584a3.388,3.388,0,0,0-3.384,3.384v11.387a3.388,3.388,0,0,0,3.384,3.384h1.223l3.908,3.908a.8.8,0,0,0,1.359-.563v-3.344Zm-14.771,1.422L128.7,186.4a.805.805,0,0,0-.563-.233h-1.553a1.794,1.794,0,0,1-1.792-1.792v-9.038h15.767a.8.8,0,1,0,0-1.593H124.793v-.756a1.794,1.794,0,0,1,1.792-1.792h19.668a1.794,1.794,0,0,1,1.792,1.792v.756H144.7a.8.8,0,1,0,0,1.593h3.344v9.038a1.794,1.794,0,0,1-1.792,1.792H132.278a.8.8,0,0,0-.8.8Z" transform="translate(-114.918 -155.107)" stroke="#fff" stroke-width="0.5"/>
    <ellipse id="Ellipse_297" data-name="Ellipse 297" cx="1.035" cy="1.035" rx="1.035" ry="1.035" transform="matrix(0.997, -0.082, 0.082, 0.997, 15.723, 22.644)" stroke="#fff" stroke-width="0.5"/>
    <path id="Path_20974" data-name="Path 20974" d="M247.028,252.47a1.035,1.035,0,1,0-1.035-1.035A1.035,1.035,0,0,0,247.028,252.47Z" transform="translate(-225.489 -227.865)" stroke="#fff" stroke-width="0.5"/>
    <circle id="Ellipse_298" data-name="Ellipse 298" cx="1.035" cy="1.035" r="1.035" transform="translate(24.686 23.571) rotate(-45)" stroke="#fff" stroke-width="0.5"/>
  </g>
</svg>
