<svg xmlns="http://www.w3.org/2000/svg" width="77" height="77" viewBox="0 0 77 77">
  <g id="Group_35476" data-name="Group 35476" transform="translate(-827 -4365)">
    <circle id="Ellipse_301" data-name="Ellipse 301" cx="38.5" cy="38.5" r="38.5" transform="translate(827 4365)" fill="#229f49" opacity="0.15"/>
    <g id="Delivery-Free_Delivery-Shipping-Free-Ecommerce" data-name="Delivery-Free Delivery-Shipping-Free-Ecommerce" transform="translate(839.502 4376.501)">
      <path id="Path_20982" data-name="Path 20982" d="M49.6,33.5,46,31.447V25.4A2.407,2.407,0,0,0,43.6,23h-8V15.8a.8.8,0,0,0-.8-.8H2.8a.8.8,0,0,0-.8.8V43a.8.8,0,0,0,.8.8H5.28a3.99,3.99,0,0,0,7.52.912,3.99,3.99,0,0,0,7.52-.912H38.878a4,4,0,0,0,7.84,0H49.2A.8.8,0,0,0,50,43V34.2a.8.8,0,0,0-.4-.7ZM9.2,45.4A2.4,2.4,0,1,1,11.6,43,2.4,2.4,0,0,1,9.2,45.4Zm7.2,0A2.4,2.4,0,1,1,18.8,43,2.4,2.4,0,0,1,16.4,45.4ZM34,42.2H20.319a3.99,3.99,0,0,0-7.52-.912,3.99,3.99,0,0,0-7.52.912H3.6V37.4H34Zm0-6.4H3.6V16.6H34Zm7.2-11.2h2.4a.8.8,0,0,1,.8.8V31H41.2Zm1.6,20.8A2.4,2.4,0,1,1,45.2,43,2.4,2.4,0,0,1,42.8,45.4Zm5.6-7.2H46.8V36.6h1.6Zm0-3.2H46a.8.8,0,0,0-.8.8V39a.8.8,0,0,0,.8.8h2.4v2.4h-1.68a4,4,0,0,0-7.84,0H35.6V24.6h4v7.2a.8.8,0,0,0,.8.8h4.392a.008.008,0,0,1,.008.008l3.6,2.056Z" transform="translate(0 -1.6)" fill="#229f49" stroke="#def1e4" stroke-width="0.5"/>
      <path id="Path_20983" data-name="Path 20983" d="M50,39h3.2v1.6H50Z" transform="translate(-9.602 -6.402)" fill="#229f49" stroke="#def1e4" stroke-width="0.5"/>
      <path id="Path_20984" data-name="Path 20984" d="M9.2,55H2v1.6H50V55H9.2Z" transform="translate(0 -9.602)" fill="#229f49" stroke="#def1e4" stroke-width="0.5"/>
      <path id="Path_20985" data-name="Path 20985" d="M20,11h9.6v1.6H20Z" transform="translate(-3.601 -0.8)" fill="#229f49" stroke="#def1e4" stroke-width="0.5"/>
      <path id="Path_20986" data-name="Path 20986" d="M16,7h9.6V8.6H16Z" transform="translate(-2.801 0)" fill="#229f49" stroke="#def1e4" stroke-width="0.5"/>
      <path id="Path_20987" data-name="Path 20987" d="M12,7h1.6V8.6H12Z" transform="translate(-2 0)" fill="#229f49" stroke="#def1e4" stroke-width="0.5"/>
      <path id="Path_20988" data-name="Path 20988" d="M7,25.8V33H8.6V29.8H11V28.2H8.6V26.6h3.2V25h-4A.8.8,0,0,0,7,25.8Z" transform="translate(-1 -3.601)" fill="#229f49" stroke="#def1e4" stroke-width="0.5"/>
      <path id="Path_20989" data-name="Path 20989" d="M24,25.8v6.4a.8.8,0,0,0,.8.8h4V31.4H25.6V29.8H28V28.2H25.6V26.6h3.2V25h-4A.8.8,0,0,0,24,25.8Z" transform="translate(-4.401 -3.601)" fill="#229f49" stroke="#def1e4" stroke-width="0.5"/>
      <path id="Path_20990" data-name="Path 20990" d="M32,25.8v6.4a.8.8,0,0,0,.8.8h4V31.4H33.6V29.8H36V28.2H33.6V26.6h3.2V25h-4A.8.8,0,0,0,32,25.8Z" transform="translate(-6.001 -3.601)" fill="#229f49" stroke="#def1e4" stroke-width="0.5"/>
      <path id="Path_20991" data-name="Path 20991" d="M20.6,27.4A2.407,2.407,0,0,0,18.2,25H15.8a.8.8,0,0,0-.8.8V33h1.6V29.8h1.6a.8.8,0,0,1,.8.8V33h1.6V30.6a2.379,2.379,0,0,0-.624-1.6,2.379,2.379,0,0,0,.624-1.6Zm-2.4.8H16.6V26.6h1.6a.8.8,0,1,1,0,1.6Z" transform="translate(-2.601 -3.601)" fill="#229f49" stroke="#def1e4" stroke-width="0.5"/>
      <path id="Path_20992" data-name="Path 20992" d="M52,49h1.6v1.6H52Z" transform="translate(-10.002 -8.402)" fill="#229f49" stroke="#def1e4" stroke-width="0.5"/>
      <path id="Path_20993" data-name="Path 20993" d="M19,49h1.6v1.6H19Z" transform="translate(-3.401 -8.402)" fill="#229f49" stroke="#def1e4" stroke-width="0.5"/>
      <path id="Path_20994" data-name="Path 20994" d="M10,49h1.6v1.6H10Z" transform="translate(-1.6 -8.402)" fill="#229f49" stroke="#def1e4" stroke-width="0.5"/>
    </g>
  </g>
</svg>
