<svg xmlns="http://www.w3.org/2000/svg" width="77" height="77" viewBox="0 0 77 77">
  <g id="Group_35479" data-name="Group 35479" transform="translate(-1317 -4358)">
    <circle id="Ellipse_303" data-name="Ellipse 303" cx="38.5" cy="38.5" r="38.5" transform="translate(1317 4358)" fill="#229f49" opacity="0.15"/>
    <g id="printing" transform="translate(1335.364 4376.014)">
      <path id="Path_20979" data-name="Path 20979" d="M6.666,21a2.666,2.666,0,1,0,2.666,2.666A2.666,2.666,0,0,0,6.666,21Zm0,4A1.333,1.333,0,1,1,8,23.666,1.333,1.333,0,0,1,6.666,25Z" transform="translate(-1.334 -7.005)" fill="#229f49"/>
      <path id="Path_20980" data-name="Path 20980" d="M16.666,21a2.666,2.666,0,1,0,2.666,2.666A2.666,2.666,0,0,0,16.666,21Zm0,4A1.333,1.333,0,1,1,18,23.666,1.333,1.333,0,0,1,16.666,25Z" transform="translate(-4.67 -7.005)" fill="#229f49"/>
      <path id="Path_20981" data-name="Path 20981" d="M35.986,10.662h-2v-2a2,2,0,0,0-2-2H30.655V1.333A1.333,1.333,0,0,0,29.322,0H10.662A1.333,1.333,0,0,0,9.33,1.333V6.664H8a2,2,0,0,0-2,2v2H4a4,4,0,0,0-4,4V27.323a4,4,0,0,0,4,4H7.423a1.951,1.951,0,0,0,.38,1.838l4.162,4.831a3.118,3.118,0,0,0,1.51.968l2.9.92a2.272,2.272,0,0,0,.68.105,2.217,2.217,0,0,0,1.04-.261,3.966,3.966,0,0,1,1.893-.406,3.966,3.966,0,0,1,1.89.408,2.222,2.222,0,0,0,1.722.154l2.885-.914a3.145,3.145,0,0,0,1.533-.976l4.162-4.83a1.955,1.955,0,0,0,.378-1.839h3.425a4,4,0,0,0,4-4V14.661A4,4,0,0,0,35.986,10.662ZM31.987,8a.666.666,0,0,1,.666.666v2h-2V8ZM29.322,1.333v9.33H10.662V1.333ZM7.33,8.663A.666.666,0,0,1,8,8H9.33v2.666h-2Zm0,21.325V26.656a2,2,0,0,1,2-2h3.332v3.971l-1.172-.4a1.943,1.943,0,0,0-2.076.56l-1.06,1.2Zm12.662,8a5.731,5.731,0,0,0-1.927.309,1.953,1.953,0,0,1,3.854,0A5.731,5.731,0,0,0,19.992,37.985Zm11.179-5.7L27.01,37.119a1.841,1.841,0,0,1-.9.569l-2.808.889a3.307,3.307,0,1,0-6.614,0l-2.828-.9a1.813,1.813,0,0,1-.882-.562L8.813,32.287a.62.62,0,0,1,0-.81l1.6-1.811a.61.61,0,0,1,.649-.179l2.049.7a.666.666,0,0,0,.88-.629v-4.9h12v4.9a.666.666,0,0,0,.883.63l2.044-.7a.611.611,0,0,1,.654.177l1.6,1.812a.62.62,0,0,1,0,.811Zm1.483-2.3H31.63l-1.06-1.2a1.945,1.945,0,0,0-2.081-.558l-1.167.4v-3.97h3.332a2,2,0,0,1,2,2Zm6-2.666a2.666,2.666,0,0,1-2.666,2.666h-2V26.656a3.336,3.336,0,0,0-3.332-3.332H9.33A3.336,3.336,0,0,0,6,26.656v3.332H4a2.666,2.666,0,0,1-2.666-2.666V14.661A2.666,2.666,0,0,1,4,12H35.986a2.666,2.666,0,0,1,2.666,2.666Z" fill="#229f49"/>
    </g>
  </g>
</svg>
