<svg xmlns="http://www.w3.org/2000/svg" width="77" height="77" viewBox="0 0 77 77">
  <g id="Group_35477" data-name="Group 35477" transform="translate(-1218 -4250)">
    <circle id="Ellipse_302" data-name="Ellipse 302" cx="38.5" cy="38.5" r="38.5" transform="translate(1218 4250)" fill="#229f49" opacity="0.15"/>
    <g id="medal" transform="translate(1239.926 4266.841)">
      <path id="Path_20998" data-name="Path 20998" d="M40.5,52.691A12.691,12.691,0,1,0,53.191,40,12.7,12.7,0,0,0,40.5,52.691Zm12.691-11a11,11,0,1,1-11,11A11.011,11.011,0,0,1,53.191,41.692Zm0,0" transform="translate(-36.616 -36.616)" fill="#229f49"/>
      <path id="Path_20999" data-name="Path 20999" d="M95.161,99.57,98.44,102.8l-.754,4.541a.846.846,0,0,0,1.224.89L103,106.11l4.085,2.122a.846.846,0,0,0,1.224-.89l-.754-4.541,3.279-3.231a.846.846,0,0,0-.468-1.439l-4.551-.685-2.059-4.118a.846.846,0,0,0-1.513,0l-2.059,4.118-4.551.685a.846.846,0,0,0-.468,1.439Zm5.706-.517a.846.846,0,0,0,.631-.458l1.5-3,1.5,3a.846.846,0,0,0,.631.458l3.312.5-2.387,2.351a.848.848,0,0,0-.241.742l.549,3.305-2.974-1.544a.846.846,0,0,0-.78,0l-2.974,1.544.549-3.305a.846.846,0,0,0-.241-.742l-2.387-2.351Zm0,0" transform="translate(-86.421 -85.003)" fill="#229f49"/>
      <path id="Path_21000" data-name="Path 21000" d="M182.192.846A.846.846,0,1,1,181.346,0,.846.846,0,0,1,182.192.846Zm0,0" transform="translate(-164.771)" fill="#229f49"/>
      <path id="Path_21001" data-name="Path 21001" d="M12.588,5.607a16.076,16.076,0,0,0-6.8,27.5l-5.1,8.983A.846.846,0,0,0,1.6,43.332l5.788-1.2,2.034,5.733A.846.846,0,0,0,10.958,48l5.617-9.875L22.191,48a.846.846,0,0,0,.735.428l.075,0a.847.847,0,0,0,.723-.56l2.034-5.733,5.788,1.2a.846.846,0,0,0,.908-1.246l-5.1-8.983a16.076,16.076,0,0,0-6.8-27.5.846.846,0,0,0-.419,1.64,14.383,14.383,0,1,1-7.138,0,.846.846,0,1,0-.418-1.64ZM10.4,45.554,8.739,40.869a.846.846,0,0,0-.969-.546L3.089,41.3l4.034-7.109A16.109,16.109,0,0,0,15.156,37.2ZM25.38,40.323a.846.846,0,0,0-.969.546l-1.662,4.685L17.993,37.2a16.11,16.11,0,0,0,8.033-3.009L30.061,41.3Zm0,0" transform="translate(0 -5.109)" fill="#229f49"/>
    </g>
  </g>
</svg>
